<svg xmlns="http://www.w3.org/2000/svg" viewBox="0 0 697 739" width="697" height="739" role="img" aria-label="수태음폐경 · 오수혈 5혈"><title>수태음폐경 · 오수혈 5혈</title><style>:root{--skin:#F4E6D8;--edge:#8A6B55;--crease:#C4A68E;--txt:#1D2A33;--sub:#5B6870;--mk:#C0392B;--line:#8E9AA1;--bg:#FAFAF7}@media (prefers-color-scheme:dark){:root{--skin:#4A3E36;--edge:#B79A83;--crease:#76655A;--txt:#E4E8E6;--sub:#9AA6AC;--mk:#FF8A78;--line:#7D8990;--bg:#14191C}}text{font-family:'IBM Plex Sans KR','Noto Sans KR','Noto Sans CJK KR','Apple SD Gothic Neo','Malgun Gothic',sans-serif}.t{font-size:19px;font-weight:700;fill:var(--txt)}.st{font-size:13px;fill:var(--sub)}.n{font-size:16px;font-weight:700;fill:var(--txt)}.d{font-size:13px;fill:var(--sub)}.e{fill:var(--edge);stroke:var(--edge);stroke-linecap:round;stroke-linejoin:round}.s{fill:var(--skin);stroke:var(--skin);stroke-linecap:round;stroke-linejoin:round}.cr{fill:none;stroke:var(--crease);stroke-width:1.6;stroke-linecap:round}.ds{stroke-dasharray:4 4}.ld{stroke:var(--line);stroke-width:1;fill:none}.mk{fill:var(--mk);stroke:var(--bg);stroke-width:1.5}.mn{font-size:10.5px;font-weight:700;fill:#fff;text-anchor:middle}
</style><rect width="100%" height="100%" fill="var(--bg)"/><text class="t" x="20" y="28">수태음폐경 · 오수혈 5혈</text><text class="st" x="20" y="48">오른팔 · 손바닥 쪽에서 본 모습 · 1촌 ≈ 엄지 너비</text><defs><g id="b0"><path class="e" stroke-width="3" d="M-48 0L-50 70C-48 150 -38 250 -32 330C-52 350 -54 395 -46 424L40 424C44 395 38 350 32 330C38 250 48 150 50 70L48 0Z"/><path class="e" fill="none" stroke-width="22" d="M-31 424L-33 498"/><path class="e" fill="none" stroke-width="22" d="M-10 424L-10 508"/><path class="e" fill="none" stroke-width="22" d="M11 424L13 500"/><path class="e" fill="none" stroke-width="22" d="M31 424L36 480"/><path class="e" fill="none" stroke-width="24" d="M-38 352L-76 426"/><path class="s" stroke-width="0.6" d="M-48 0L-50 70C-48 150 -38 250 -32 330C-52 350 -54 395 -46 424L40 424C44 395 38 350 32 330C38 250 48 150 50 70L48 0Z"/><path class="s" fill="none" stroke-width="19" d="M-31 424L-33 498"/><path class="s" fill="none" stroke-width="19" d="M-10 424L-10 508"/><path class="s" fill="none" stroke-width="19" d="M11 424L13 500"/><path class="s" fill="none" stroke-width="19" d="M31 424L36 480"/><path class="s" fill="none" stroke-width="21" d="M-38 352L-76 426"/><path class="cr" d="M-47 70Q0 78 47 70"/><path class="cr" d="M-31 330Q0 337 31 330"/><path class="cr" d="M-30 346C-12 374 -16 400 -22 420"/><path class="cr" d="M-34 410Q2 398 38 410"/><path class="cr" d="M-37 440L-25 440"/><path class="cr" d="M-16 440L-4 440"/><path class="cr" d="M5 440L17 440"/><path class="cr" d="M25 440L37 440"/></g></defs><svg x="234" y="66" width="219" height="168" viewBox="-90 0 146 112" overflow="hidden"><use href="#b0"/></svg><text class="st" x="344" y="258" text-anchor="middle">· · ·  중간 생략  · · ·</text><svg x="238" y="274" width="212" height="409" viewBox="-90 246 146 282" overflow="hidden"><use href="#b0"/></svg><path class="ld" d="M252.2 540.8L226 540.8"/><path class="ld" d="M305.8 456.7L226 473.9"/><path class="ld" d="M339.1 395.8L226 418.9"/><path class="ld" d="M340.6 363.9L226 363.9"/><path class="ld" d="M343.5 171.0L226 171.0"/><text class="n" x="220" y="539.8" text-anchor="end">1 정 · 소상</text><text class="d" x="220" y="554.8" text-anchor="end">LU11</text><text class="d" x="220" y="569.8" text-anchor="end">엄지 안쪽(요측) 손톱</text><text class="d" x="220" y="584.8" text-anchor="end">모서리</text><text class="n" x="220" y="472.9" text-anchor="end">2 형 · 어제</text><text class="d" x="220" y="487.9" text-anchor="end">LU10</text><text class="d" x="220" y="502.9" text-anchor="end">엄지 아래 불룩한 곳 가운데</text><text class="n" x="220" y="417.9" text-anchor="end">3 수 · 태연</text><text class="d" x="220" y="432.9" text-anchor="end">LU9</text><text class="d" x="220" y="447.9" text-anchor="end">손목 주름, 맥이 뛰는 곳</text><text class="n" x="220" y="362.9" text-anchor="end">4 경 · 경거</text><text class="d" x="220" y="377.9" text-anchor="end">LU8</text><text class="d" x="220" y="392.9" text-anchor="end">손목 주름 위 1촌</text><text class="n" x="220" y="170.0" text-anchor="end">5 합 · 척택</text><text class="d" x="220" y="185.0" text-anchor="end">LU5</text><text class="d" x="220" y="200.0" text-anchor="end">팔꿈치 주름, 엄지 쪽 힘줄</text><text class="d" x="220" y="215.0" text-anchor="end">옆</text><circle class="mk" cx="252.2" cy="540.8" r="9"/><text class="mn" x="252.2" y="544.6">1</text><circle class="mk" cx="305.8" cy="456.7" r="9"/><text class="mn" x="305.8" y="460.5">2</text><circle class="mk" cx="339.1" cy="395.8" r="9"/><text class="mn" x="339.1" y="399.6">3</text><circle class="mk" cx="340.6" cy="363.9" r="9"/><text class="mn" x="340.6" y="367.7">4</text><circle class="mk" cx="343.5" cy="171.0" r="9"/><text class="mn" x="343.5" y="174.8">5</text><text class="st" x="20" y="727">개략도입니다. 위치는 교재·사암침법 자료와 비교해 확인하세요.</text></svg>